<svg width="150" height="150" viewBox="0 0 150 150" fill="none" xmlns="http://www.w3.org/2000/svg">
<path d="M124.567 111.113C124.579 112.292 124.275 113.833 123.958 115.104C121.746 124.042 111.921 134.071 98.0916 133.158C85.5583 132.333 75.35 126.317 75.35 117.879C75.35 109.442 85.5333 102.6 98.0916 102.6C110.65 102.6 124.487 102.675 124.567 111.113Z" fill="#EA596E"/>
<path d="M98.0917 104.017C91.3458 104.017 75.95 105.883 72.4167 105.883C66.175 105.883 61.1125 109.8 61.1125 114.633C61.1125 116.958 62.3042 119.058 64.2125 120.625C64.2125 120.625 68.4042 124.829 75.9542 122.812C79.2583 121.929 84.6333 115.371 94.0958 114.329C98.8083 113.808 107.637 117.454 123.154 117.542C123.821 116.108 123.958 115.112 123.958 115.112C123.958 106.667 110.65 104.017 98.0917 104.017Z" fill="#DD2E44"/>
<path d="M123.958 115.104C123.958 115.104 133.058 113.258 138.717 105.817C145.312 97.1375 144.446 87.85 144.446 87.85C151.129 75.35 142.362 63.6292 142.362 63.6292C141.492 50.4333 133.333 44.9667 133.333 44.9667C128.037 32.3792 116.321 28.9958 116.321 28.9958C107.121 18.2333 90.8 18.5792 90.8 18.5792C90.8 18.5792 75.5083 12.975 54.5166 19.275C51.0458 20.3167 39.4125 22.7458 30.9041 27.9542C4.08748 44.3708 2.05831 69.9708 2.43331 74.1333C4.51248 97.3958 20.8333 101.562 31.25 103.992C33.6791 110.587 42.6208 122.742 58.6791 118.229C78.4708 114.758 86.8041 108.854 91.6666 108.854C96.5291 108.854 110.071 114.062 123.958 115.104Z" fill="#F4ABBA"/>
<path d="M73.9042 77.7C83.6042 72.4708 88.8625 72.9583 93.5042 73.3792C94.9792 73.5125 96.375 73.6167 97.7875 73.6083C106.054 73.4208 112.75 69.9375 115.713 66.5667C116.052 66.1478 116.217 65.6137 116.171 65.0763C116.126 64.5389 115.874 64.0399 115.469 63.6839C115.064 63.3278 114.537 63.1423 113.998 63.1663C113.46 63.1903 112.951 63.4219 112.579 63.8125C110.296 66.4125 104.667 69.2833 97.6917 69.4417C96.4417 69.4792 95.1875 69.3542 93.8875 69.2333C88.9083 68.7708 82.725 68.2042 71.925 74.0333C69.1542 75.5292 65.3542 76.0833 61.2375 76.5C52.0833 63.2875 57.5917 51.7792 59.1667 49.0375C59.3208 49.0458 59.4708 49.0958 59.6292 49.0958C61.2958 49.0958 62.9708 48.6875 64.4875 47.8292C64.9495 47.5479 65.284 47.0979 65.4203 46.5744C65.5565 46.0509 65.4838 45.495 65.2176 45.0241C64.9513 44.5533 64.5123 44.2045 63.9935 44.0515C63.4747 43.8984 62.9167 43.9532 62.4375 44.2042C61.1267 44.9258 59.5919 45.1262 58.1397 44.7655C56.6876 44.4048 55.4249 43.5094 54.6042 42.2583C54.2943 41.8214 53.8281 41.5206 53.3023 41.4184C52.7765 41.3162 52.2316 41.4205 51.7806 41.7095C51.3297 41.9985 51.0074 42.4501 50.8806 42.9705C50.7539 43.4909 50.8324 44.0402 51.1 44.5042C52.0875 46.05 53.4792 47.2125 55.05 47.9917C52.8792 52.4 48.7583 63.9917 56.6 76.9542C51.0833 77.4958 45.5583 78.275 41.2333 81.0625C38.1935 83.0542 35.5419 85.583 33.4083 88.525C30.7875 88.075 21.1917 85.7125 19.5167 75.0625C20.5583 74.2542 21.4 73.1875 21.9208 71.8708C22.0215 71.6164 22.0711 71.3446 22.0667 71.071C22.0624 70.7974 22.0042 70.5274 21.8955 70.2763C21.7867 70.0252 21.6296 69.7979 21.4331 69.6075C21.2366 69.4172 21.0044 69.2673 20.75 69.1667C20.4956 69.066 20.2238 69.0164 19.9502 69.0208C19.6766 69.0251 19.4065 69.0833 19.1554 69.192C18.9043 69.3008 18.6771 69.4579 18.4867 69.6544C18.2963 69.851 18.1465 70.0831 18.0458 70.3375C17.8883 70.7755 17.6375 71.174 17.3109 71.5057C16.9843 71.8373 16.5897 72.0941 16.1542 72.2583C15.7129 72.405 15.2451 72.4549 14.7828 72.4045C14.3205 72.3542 13.8744 72.2049 13.475 71.9667C13.2359 71.8337 12.9729 71.7491 12.7011 71.7178C12.4293 71.6865 12.154 71.709 11.8909 71.784C11.3596 71.9356 10.9102 72.2921 10.6417 72.775C10.3731 73.2579 10.3074 73.8277 10.459 74.3591C10.6106 74.8904 10.9671 75.3398 11.45 75.6083C12.6333 76.2667 13.9 76.6 15.1583 76.6C15.3125 76.6 15.4583 76.5292 15.6125 76.5208C17.5958 86.575 25.5417 90.9917 31.1625 92.3292C30.4266 93.8953 29.9603 95.5745 29.7833 97.2958C29.7348 97.8461 29.9068 98.3932 30.2615 98.8167C30.6163 99.2402 31.1247 99.5055 31.675 99.5542L31.8625 99.5625C32.3833 99.5624 32.8851 99.3673 33.2692 99.0157C33.6532 98.664 33.8917 98.1812 33.9375 97.6625C34.3875 92.6083 39.2083 87.3292 43.4917 84.5583C47.5083 81.9708 53.3875 81.425 59.0792 80.8958C64.6 80.3917 69.8167 79.9083 73.9042 77.7ZM127.513 71.4333C127.381 71.6735 127.298 71.9373 127.269 72.2094C127.24 72.4816 127.264 72.7569 127.341 73.0196C127.418 73.2824 127.546 73.5273 127.718 73.7406C127.889 73.9538 128.101 74.1312 128.342 74.2625C128.582 74.3938 128.846 74.4766 129.118 74.506C129.39 74.5354 129.665 74.5109 129.928 74.4339C130.459 74.2784 130.906 73.9185 131.171 73.4333C131.25 73.2917 138.846 59.0625 124.625 49.5C124.166 49.1917 123.604 49.0782 123.062 49.1845C122.52 49.2907 122.042 49.6081 121.733 50.0667C121.425 50.5253 121.312 51.0876 121.418 51.6299C121.524 52.1722 121.841 52.65 122.3 52.9583C133.317 60.3667 127.754 70.9833 127.513 71.4333ZM41.15 37.7917C41.4807 37.7928 41.8068 37.7147 42.1011 37.5639C42.3955 37.4131 42.6494 37.194 42.8417 36.925C48.8833 28.5208 57.25 31.3958 57.6042 31.5292C58.1173 31.6986 58.6762 31.6619 59.1629 31.427C59.6496 31.192 60.0259 30.7772 60.2124 30.27C60.399 29.7628 60.3811 29.203 60.1627 28.7087C59.9443 28.2144 59.5423 27.8243 59.0417 27.6208C55.0417 26.1375 45.8042 25.6708 39.4583 34.4958C39.2356 34.8071 39.1029 35.1737 39.0748 35.5554C39.0467 35.9371 39.1243 36.3192 39.299 36.6597C39.4738 37.0002 39.739 37.286 40.0655 37.4856C40.392 37.6853 40.7673 37.7912 41.15 37.7917ZM95.6167 29.925C104.888 29.1708 109.104 35.8917 109.296 36.2083C109.576 36.6852 110.034 37.0312 110.569 37.1703C110.834 37.2392 111.11 37.2551 111.382 37.2174C111.653 37.1796 111.914 37.0887 112.15 36.95C112.386 36.8113 112.593 36.6274 112.758 36.4089C112.923 36.1904 113.043 35.9416 113.112 35.6765C113.181 35.4115 113.197 35.1355 113.159 34.8643C113.121 34.5931 113.03 34.3319 112.892 34.0958C112.667 33.7167 107.308 24.8542 95.2917 25.7708C95.0189 25.7922 94.753 25.867 94.5092 25.9911C94.2653 26.1152 94.0483 26.2861 93.8705 26.4941C93.5115 26.9141 93.334 27.4595 93.3771 28.0104C93.4202 28.5613 93.6803 29.0725 94.1003 29.4315C94.5204 29.7906 95.0658 29.9681 95.6167 29.925ZM133.742 90.8042C132.717 90.7458 131.588 91.5583 131.496 92.7083C131.488 92.7833 130.825 99.8708 123.537 102.267C123.061 102.416 122.654 102.733 122.392 103.158C122.129 103.582 122.029 104.088 122.108 104.581C122.187 105.074 122.442 105.522 122.824 105.843C123.207 106.164 123.692 106.337 124.192 106.329C124.412 106.329 124.632 106.294 124.842 106.225C134.725 102.983 135.617 93.4583 135.65 93.0542C135.694 92.5031 135.518 91.957 135.16 91.5354C134.803 91.1138 134.293 90.8509 133.742 90.8042Z" fill="#EA596E"/>
<path d="M30.6125 70.5583C30.5305 70.8257 30.5032 71.1067 30.5322 71.3848C30.5612 71.6629 30.6458 71.9323 30.7811 72.177C30.9164 72.4217 31.0996 72.6367 31.3197 72.8091C31.5398 72.9815 31.7924 73.1078 32.0623 73.1806C32.3323 73.2533 32.6142 73.2709 32.8911 73.2325C33.168 73.194 33.4344 73.1001 33.6743 72.9565C33.9142 72.8129 34.1227 72.6225 34.2875 72.3966C34.4523 72.1707 34.5699 71.914 34.6333 71.6417C35.0345 70.198 35.9674 68.9598 37.2444 68.1759C38.5214 67.3921 40.0478 67.1208 41.5166 67.4167C41.7845 67.4728 42.0608 67.4755 42.3297 67.4249C42.5986 67.3742 42.8549 67.271 43.0839 67.1213C43.313 66.9715 43.5103 66.7782 43.6646 66.5522C43.8189 66.3262 43.9272 66.072 43.9833 65.8042C44.0394 65.5363 44.0422 65.2601 43.9915 64.9911C43.9408 64.7222 43.8377 64.4659 43.6879 64.2369C43.5382 64.0078 43.3448 63.8105 43.1188 63.6562C42.8928 63.5019 42.6386 63.3936 42.3708 63.3375C40.6369 62.9858 38.8401 63.1096 37.1708 63.6958C32.3125 55.3875 33.2583 47.1958 33.2708 47.1083C33.342 46.5612 33.194 46.008 32.8592 45.5694C32.5244 45.1308 32.0299 44.8423 31.4833 44.7667C30.9376 44.6965 30.3861 44.8437 29.948 45.1766C29.5099 45.5095 29.2203 46.0013 29.1416 46.5458C29.0875 46.95 27.975 56.1958 33.5708 65.7708C32.1423 67.0469 31.1147 68.7099 30.6125 70.5583ZM77.1916 60.2667C78.0234 59.5099 79.1107 59.0957 80.2352 59.1073C81.3597 59.1189 82.4381 59.5554 83.2541 60.3292C83.6519 60.7117 84.1847 60.9215 84.7365 60.9129C85.2883 60.9043 85.8143 60.678 86.2 60.2833C86.5851 59.8872 86.797 59.3542 86.7892 58.8018C86.7814 58.2493 86.5544 57.7226 86.1583 57.3375C85.2171 56.4421 84.0801 55.7787 82.8375 55.4C84.0708 51.1667 83.5833 49.2875 82.4375 45.7667C82.2107 45.0778 81.9926 44.3861 81.7833 43.6917L81.6583 43.275C80.1416 38.2417 79.1375 34.9208 82.0208 30.2333C82.3103 29.7626 82.401 29.1961 82.2728 28.6585C82.1447 28.1209 81.8082 27.6562 81.3375 27.3667C80.8667 27.0771 80.3002 26.9865 79.7626 27.1146C79.225 27.2428 78.7603 27.5792 78.4708 28.05C74.6041 34.3333 76.025 39.0375 77.6708 44.4833L77.7958 44.9C78.0416 45.7083 78.2666 46.4167 78.475 47.0542C79.5041 50.225 79.8166 51.2875 78.5583 55.1208C76.9846 55.4072 75.525 56.1355 74.35 57.2208C73.9605 57.6011 73.7353 58.1187 73.7226 58.6629C73.7099 59.2071 73.9107 59.7347 74.2821 60.1327C74.6534 60.5307 75.1658 60.7676 75.7096 60.7926C76.2533 60.8177 76.7853 60.6289 77.1916 60.2667ZM103.712 47.8292C104.95 47.8329 106.172 47.561 107.292 47.0333C107.792 46.798 108.178 46.3736 108.365 45.8536C108.552 45.3335 108.525 44.7605 108.29 44.2604C108.054 43.7604 107.63 43.3743 107.11 43.1872C106.59 43 106.017 43.0271 105.517 43.2625C104.492 43.7305 103.329 43.7943 102.26 43.4412C101.191 43.0881 100.294 42.3442 99.75 41.3583C99.6261 41.108 99.4533 40.8851 99.2416 40.7029C99.0299 40.5208 98.7837 40.383 98.5177 40.2979C98.2517 40.2127 97.9714 40.1819 97.6932 40.2073C97.4151 40.2327 97.1449 40.3137 96.8988 40.4456C96.6526 40.5775 96.4354 40.7576 96.2602 40.9751C96.085 41.1926 95.9553 41.443 95.8789 41.7117C95.8024 41.9803 95.7807 42.2615 95.8151 42.5387C95.8495 42.8158 95.9393 43.0832 96.0791 43.325C96.8291 44.725 97.9458 45.8292 99.2458 46.5958C97.0083 52.0333 98.2791 57.8083 99.3166 60.8708C99.396 61.1396 99.5287 61.3896 99.7069 61.6058C99.8851 61.8221 100.105 62.0002 100.354 62.1294C100.602 62.2587 100.875 62.3364 101.154 62.358C101.433 62.3797 101.714 62.3447 101.98 62.2552C102.245 62.1658 102.49 62.0237 102.699 61.8374C102.909 61.6512 103.078 61.4246 103.198 61.1712C103.318 60.9179 103.385 60.643 103.396 60.363C103.407 60.083 103.362 59.8037 103.262 59.5417C102.562 57.4667 101.204 52.225 103.254 47.7667C103.412 47.775 103.558 47.8292 103.712 47.8292ZM123.7 87.1167C123.684 86.8431 123.614 86.5753 123.494 86.329C123.374 86.0826 123.206 85.8626 123 85.6816C122.794 85.5006 122.555 85.3622 122.295 85.2745C122.035 85.1869 121.761 85.1516 121.487 85.1708C120.488 85.2399 119.486 85.1109 118.536 84.7913C117.587 84.4716 116.711 83.9677 115.957 83.3084C115.203 82.6491 114.587 81.8473 114.144 80.9492C113.701 80.0511 113.44 79.0744 113.375 78.075C113.328 77.5272 113.07 77.0189 112.656 76.6575C112.242 76.296 111.703 76.1096 111.154 76.1375C110.603 76.1771 110.091 76.4327 109.728 76.8487C109.365 77.2647 109.181 77.8074 109.217 78.3583C109.387 80.8167 110.325 83.0333 111.75 84.8375C108.4 88.7792 104.012 89.9 101.567 90.1875C99.4041 90.4458 97.5125 90.225 95.325 89.9667C93.3208 89.7375 91.0541 89.475 88.25 89.5583L88.2291 89.5625C88.1458 88.3708 87.8625 86.6333 86.9583 85.1875C86.6475 84.7593 86.1856 84.4652 85.6662 84.3645C85.1468 84.2639 84.6085 84.3642 84.1602 84.6452C83.712 84.9263 83.3871 85.3671 83.2514 85.8784C83.1157 86.3898 83.1792 86.9337 83.4291 87.4C83.9875 88.2958 84.0916 89.725 84.0916 90.4208C81.9916 91.175 80.175 92.2833 78.5333 93.3542C75.6 95.2625 73.2875 96.7708 69.8083 95.9875C66.6583 95.2667 63.5041 95.1208 60.8291 95.4958C60.4125 94.45 59.7541 93.2 58.7375 92.2375C58.3358 91.8579 57.7998 91.6534 57.2473 91.6691C56.6948 91.6847 56.1712 91.9191 55.7916 92.3208C55.4121 92.7225 55.2076 93.2586 55.2232 93.811C55.2388 94.3635 55.4733 94.8871 55.875 95.2667C56.2333 95.6042 56.5166 96.0958 56.7458 96.5875C52.15 98.4792 49.8458 101.642 49.7375 101.796C49.5164 102.107 49.3853 102.473 49.3584 102.854C49.3316 103.234 49.41 103.615 49.5851 103.954C49.7603 104.293 50.0254 104.578 50.3513 104.776C50.6773 104.974 51.0517 105.079 51.4333 105.079C51.7626 105.08 52.0875 105.003 52.3814 104.855C52.6754 104.706 52.9301 104.49 53.125 104.225C53.1458 104.192 55.4333 101.129 59.9458 99.8917C62.2791 99.25 65.625 99.3042 68.8875 100.046C69.8 100.254 70.6458 100.325 71.4666 100.337C71.8541 101.246 72.0041 102.325 72.025 102.725C72.0558 103.256 72.2881 103.755 72.6745 104.121C73.0609 104.486 73.5723 104.69 74.1041 104.692L74.2166 104.688C74.7664 104.658 75.2823 104.413 75.6516 104.005C76.0209 103.596 76.2136 103.058 76.1875 102.508C76.1179 101.538 75.9362 100.579 75.6458 99.65C77.5666 98.9542 79.2375 97.8667 80.8083 96.8458C83.1916 95.2917 85.4458 93.8208 88.3916 93.725C90.8583 93.6375 92.8916 93.875 94.8541 94.1042C96.8291 94.3333 98.7708 94.4833 100.912 94.3583C101.292 95.4125 101.262 96.8208 101.204 97.2917C101.169 97.585 101.196 97.8826 101.284 98.1647C101.372 98.4468 101.518 98.7072 101.714 98.9287C101.909 99.1502 102.15 99.3279 102.419 99.45C102.688 99.5722 102.979 99.6361 103.275 99.6375C103.78 99.6367 104.268 99.4525 104.647 99.1191C105.026 98.7857 105.272 98.3258 105.337 97.825C105.49 96.4585 105.407 95.0759 105.092 93.7375C108.893 92.7289 112.3 90.5919 114.862 87.6083C116.928 88.8842 119.34 89.4856 121.762 89.3292C122.035 89.3112 122.301 89.2396 122.546 89.1187C122.791 88.9978 123.01 88.8298 123.19 88.6243C123.369 88.4188 123.507 88.1799 123.595 87.9213C123.682 87.6626 123.718 87.3892 123.7 87.1167Z" fill="#EA596E"/>
</svg>
