<svg width="105" height="137" viewBox="0 0 105 137" fill="none" xmlns="http://www.w3.org/2000/svg">
<path d="M47.3911 45.2742V135.388C47.3911 136.129 47.7865 136.75 48.259 136.75H104.106C104.578 136.75 104.974 136.129 104.974 135.388V45.2742C104.983 44.9367 104.9 44.6059 104.739 44.3409L104.716 44.3174C104.716 44.3174 104.703 44.2895 104.685 44.2767C104.617 44.1603 104.529 44.0662 104.428 44.002C104.327 43.9377 104.216 43.9049 104.104 43.9064H48.2573C47.7865 43.9064 47.3911 44.5336 47.3911 45.2742Z" fill="#B6A7A1"/>
<path d="M0.164062 45.2742V135.388C0.164062 136.129 0.559453 136.75 1.03195 136.75H56.8788C57.3513 136.75 57.7467 136.129 57.7467 135.388V45.2742C57.7573 44.9364 57.674 44.6049 57.5121 44.3409L57.4908 44.3174C57.4908 44.3174 57.476 44.2895 57.4613 44.2767C57.392 44.161 57.3033 44.0674 57.2021 44.0032C57.1009 43.9391 56.9897 43.9059 56.8772 43.9064H1.03031C0.559453 43.9064 0.164062 44.5336 0.164062 45.2742Z" fill="#B6A7A1"/>
<path d="M3.67007 66.5884H22.5028C22.657 66.5884 22.8047 66.5049 22.8047 66.4236V56.0009C22.8047 55.911 22.6587 55.8404 22.5028 55.8404H3.67007C3.59926 55.8372 3.52876 55.854 3.46336 55.8896V55.8981C3.4207 55.9303 3.38297 55.9581 3.38297 55.9988V66.4236C3.38297 66.5071 3.50601 66.5884 3.67007 66.5884ZM3.68156 84.133H23.0163C23.1705 84.133 23.3248 84.0495 23.3248 83.9682V73.5476C23.3248 73.4577 23.1705 73.3828 23.0163 73.3828H3.6832C3.60616 73.3786 3.52939 73.3969 3.45843 73.4363V73.4449C3.45843 73.4449 3.38461 73.5005 3.38461 73.5455V83.966C3.38461 84.0495 3.50601 84.133 3.68156 84.133ZM3.76523 99.2522H28.5616C28.7585 99.2522 28.9537 99.1709 28.9537 99.0895V88.6647C28.9537 88.5726 28.7569 88.5063 28.5616 88.5063H3.76523C3.67028 88.5026 3.57551 88.5192 3.48468 88.5555V88.5641C3.43547 88.5962 3.38297 88.624 3.38297 88.6647V99.0917C3.38297 99.1709 3.54703 99.2522 3.76523 99.2522ZM3.72257 116.807H25.4805C25.6512 116.807 25.8234 116.726 25.8234 116.643V106.22C25.8234 106.128 25.6528 106.059 25.4805 106.059H3.72257C3.63838 106.056 3.55438 106.072 3.47484 106.109V106.119C3.4289 106.151 3.38297 106.177 3.38297 106.22V116.645C3.38297 116.726 3.5257 116.807 3.72257 116.807ZM84.5906 67.9477H101.694C101.824 67.9477 101.957 67.8642 101.957 67.7829V57.3602C101.957 57.2681 101.824 57.1996 101.694 57.1996H84.5906C84.5224 57.1957 84.4545 57.2126 84.3921 57.2489V57.2574C84.3626 57.2896 84.3281 57.3174 84.3281 57.3581V67.7829C84.3281 67.8664 84.4364 67.9477 84.5906 67.9477ZM80.9812 85.5009H101.632C101.794 85.5009 101.958 85.4195 101.958 85.3382V74.9133C101.958 74.8234 101.793 74.7528 101.632 74.7528H80.9812C80.9024 74.7493 80.8238 74.766 80.7499 74.802V74.8106C80.7089 74.8427 80.6662 74.8705 80.6662 74.9112V85.3382C80.6662 85.4195 80.7959 85.5009 80.9812 85.5009ZM74.4352 100.614H101.538C101.752 100.614 101.966 100.532 101.966 100.449V90.0261C101.966 89.9341 101.752 89.8656 101.538 89.8656H74.4466C74.3425 89.8626 74.2387 89.8792 74.1382 89.9148V89.9255C74.0824 89.9576 74.0299 89.9833 74.0299 90.0261V100.451C74.0299 100.532 74.1989 100.614 74.445 100.614H74.4352ZM78.8501 118.173H101.604C101.786 118.173 101.968 118.09 101.968 118.008V107.586C101.968 107.494 101.788 107.425 101.604 107.425H78.8517C78.7638 107.422 78.6761 107.438 78.5925 107.474V107.483C78.5449 107.517 78.5023 107.543 78.5023 107.586V118.011C78.5023 118.09 78.6434 118.173 78.8501 118.173Z" fill="#5697A2"/>
<path d="M19.3791 7.4772V134.78C19.3791 135.835 19.8335 136.709 20.3733 136.709H84.5184C85.0582 136.709 85.5094 135.835 85.5094 134.78V7.4772C85.5094 6.90565 85.4077 6.46682 85.2469 6.16071L85.2173 6.12432C85.2173 6.09221 85.2042 6.08793 85.1829 6.06866C85.1168 5.91314 85.0204 5.78315 84.9034 5.69181C84.7864 5.60047 84.6531 5.55104 84.5168 5.54849H20.3733C19.8335 5.54849 19.3791 6.42615 19.3791 7.4772Z" fill="#D4C8C3"/>
<path d="M43.5455 136.747H61.7285C61.8713 136.747 62.0041 136.628 62.0041 136.478V119.432C62.0041 119.286 61.8713 119.171 61.7285 119.171H43.5471C43.4792 119.169 43.4127 119.197 43.3584 119.25L43.3519 119.258H43.3453C43.3076 119.308 43.2649 119.368 43.2649 119.432V136.476C43.2649 136.628 43.3995 136.747 43.5455 136.747Z" fill="#9A535F"/>
<path d="M45.8112 128.313H48.9694C48.9694 128.313 49.0186 128.277 49.0186 128.241V123.578C49.0186 123.538 48.9907 123.505 48.9907 123.505H45.8112C45.8112 123.505 45.78 123.516 45.7767 123.529V123.535C45.7767 123.535 45.7636 123.563 45.7636 123.58V128.243C45.7636 128.277 45.7636 128.313 45.8112 128.313Z" fill="#86A7AC"/>
<path d="M23.6545 40.8153H80.138C80.5858 40.8153 81.0354 40.7104 81.0354 40.6098V27.567C81.0354 27.4535 80.5875 27.3658 80.138 27.3658H23.6545C23.433 27.3658 23.1607 27.3679 23.0278 27.43V27.4385C22.9162 27.4792 22.803 27.5156 22.803 27.567V40.6098C22.803 40.7083 23.1607 40.8153 23.6545 40.8153ZM23.6545 62.7674H80.138C80.5858 62.7674 81.0354 62.6625 81.0354 62.5619V49.5191C81.0354 49.4035 80.5875 49.3179 80.138 49.3179H23.6545C23.433 49.3179 23.1607 49.3414 23.0278 49.3821V49.3949C22.9162 49.4313 22.803 49.4677 22.803 49.5191V62.5619C22.803 62.6625 23.1607 62.7674 23.6545 62.7674ZM24.173 81.9645H80.6728C81.1207 81.9645 81.5686 81.8596 81.5686 81.759V68.7162C81.5686 68.6028 81.1223 68.515 80.6728 68.515H24.1812C23.9712 68.512 23.7615 68.5335 23.5544 68.5792V68.5878C23.4462 68.6284 23.3346 68.6648 23.3346 68.7162V81.759C23.3346 81.8596 23.6939 81.9645 24.1812 81.9645H24.173ZM24.173 103.919H80.6728C81.1207 103.919 81.5686 103.814 81.5686 103.713V90.6705C81.5686 90.5549 81.1223 90.4692 80.6728 90.4692H24.1812C23.9713 90.4668 23.7616 90.4875 23.5544 90.5313V90.5463C23.4462 90.5827 23.3346 90.6191 23.3346 90.6705V103.713C23.3346 103.814 23.6939 103.919 24.1812 103.919" fill="#6CB5C6"/>
<path d="M56.1586 128.313H59.3217C59.343 128.313 59.3709 128.277 59.3709 128.241V123.578C59.3709 123.538 59.3414 123.505 59.3217 123.505H56.1586C56.1586 123.505 56.134 123.516 56.1258 123.529V123.535C56.1258 123.535 56.1127 123.563 56.1127 123.58V128.243C56.1127 128.277 56.134 128.313 56.1586 128.313Z" fill="#86A7AC"/>
</svg>
