<svg width="150" height="150" viewBox="0 0 150 150" fill="none" xmlns="http://www.w3.org/2000/svg">
<path d="M86.4375 104.391H63.5508V127.043C63.5508 132.727 68.2148 137.332 73.957 137.332H76.0312C81.7734 137.332 86.4375 132.727 86.4375 127.043V104.391ZM107.027 59.0742H42.9727C36.0703 59.0742 30.4219 65.0977 30.4219 72.4453C30.4219 79.8047 36.0703 85.8164 42.9727 85.8164H107.016C113.918 85.8164 119.566 79.793 119.566 72.4453C119.578 65.0977 113.93 59.0742 107.027 59.0742Z" fill="#7A4C32"/>
<path d="M75 12.9492C54.6094 12.9492 35.7188 34.7578 35.7188 66.1406C35.7188 97.3594 55.1836 112.793 75 112.793C94.8164 112.793 114.281 97.3594 114.281 66.1406C114.281 34.7578 95.3906 12.9492 75 12.9492Z" fill="#A56C43"/>
<path d="M55.7344 74.8711C58.9251 74.8711 61.5117 72.1953 61.5117 68.8945C61.5117 65.5938 58.9251 62.918 55.7344 62.918C52.5436 62.918 49.957 65.5938 49.957 68.8945C49.957 72.1953 52.5436 74.8711 55.7344 74.8711Z" fill="#42312C"/>
<path d="M94.2656 74.8711C97.4564 74.8711 100.043 72.1953 100.043 68.8945C100.043 65.5938 97.4564 62.918 94.2656 62.918C91.0749 62.918 88.4883 65.5938 88.4883 68.8945C88.4883 72.1953 91.0749 74.8711 94.2656 74.8711Z" fill="#42312C"/>
<path d="M79.5234 79.7344C79.3945 79.6875 79.2774 79.6523 79.1484 79.6406H70.8633C70.7344 79.6523 70.6055 79.6875 70.4883 79.7344C69.7383 80.0391 69.3281 80.8125 69.6797 81.6445C70.0313 82.4766 71.6836 84.7969 75.0117 84.7969C78.3399 84.7969 79.9922 82.4648 80.3438 81.6445C80.6836 80.8125 80.2734 80.0391 79.5234 79.7344Z" fill="#875334"/>
<path d="M84.8672 89.2031C81.1289 91.418 68.8945 91.418 65.168 89.2031C63.0235 87.9258 60.832 89.8828 61.7227 91.8281C62.6016 93.7383 69.2813 98.1797 75.0469 98.1797C80.8125 98.1797 87.4102 93.7383 88.2891 91.8281C89.168 89.8828 87.0117 87.9258 84.8672 89.2031Z" fill="#473530"/>
<path d="M75.0234 5.89453H74.9766C21.7266 6.17578 32.6367 64.6523 32.6367 64.6523C32.6367 64.6523 35.0273 70.9219 36.1172 73.6875C36.2695 74.0859 36.8555 74.0391 36.9492 73.6289C38.0859 68.543 42.1758 50.5078 44.2383 45.0234C44.8275 43.4608 45.9474 42.1551 47.4019 41.3347C48.8565 40.5142 50.5532 40.2312 52.1953 40.5352C57.4219 41.4844 65.7305 42.6562 74.9062 42.6562H75.0938C84.2578 42.6562 92.5781 41.4844 97.793 40.5352C101.191 39.9141 104.543 41.8008 105.75 45.0234C107.801 50.4844 111.867 68.4141 113.016 73.5703C113.109 73.9922 113.695 74.0273 113.848 73.6289L117.34 64.6406C117.363 64.6523 128.262 6.17578 75.0234 5.89453Z" fill="#3C2C23"/>
<path d="M117.363 64.6523C117.363 64.6523 128.273 6.17578 75.0234 5.89453H74.9766C74.1445 5.89453 73.336 5.91797 72.5391 5.95312C70.9571 6.02344 69.4219 6.14062 67.9453 6.31641H67.8984C67.793 6.32812 67.6992 6.35156 67.5938 6.36328C22.7695 12 32.625 64.6523 32.625 64.6523L36.1172 73.6523C36.2695 74.0508 36.8438 74.0156 36.9375 73.5938C38.086 68.4492 42.1641 50.4961 44.2266 45.0352C44.8171 43.4709 45.939 42.1642 47.3958 41.3437C48.8526 40.5232 50.5515 40.2411 52.1953 40.5469C57.4219 41.4844 65.7305 42.6562 74.9063 42.6562H75.0938C84.2578 42.6562 92.5781 41.4844 97.793 40.5352C101.191 39.9141 104.543 41.8008 105.75 45.0234C107.813 50.5078 111.902 68.5781 113.027 73.6406C113.121 74.0625 113.695 74.0977 113.848 73.6992C114.949 70.9453 117.363 64.6523 117.363 64.6523Z" fill="url(#paint0_radial_4_35)"/>
<path d="M46.8867 59.4375C50.3906 54.4805 58.3477 54.0117 62.9063 57.7031C63.6328 58.2891 64.5938 59.1094 64.875 60.0234C65.3438 61.5117 63.9141 62.6719 62.5195 62.3203C61.6289 62.0977 60.7969 61.6172 59.918 61.3477C58.3125 60.8437 57.1523 60.7031 55.7109 60.7031C53.5781 60.6914 52.207 60.9609 50.1797 61.7812C49.3477 62.1211 48.668 62.6602 47.7188 62.2617C46.6289 61.8047 46.2305 60.4219 46.8867 59.4375ZM100.863 62.25C100.523 62.0977 100.195 61.9102 99.8555 61.7695C97.7695 60.9023 96.5859 60.6797 94.3242 60.6914C92.332 60.7031 91.1484 60.9727 89.5898 61.5C88.6406 61.8281 87.4336 62.6484 86.3789 62.332C84.832 61.8633 84.8789 60.1758 85.7227 59.0977C86.7305 57.832 88.1133 56.8711 89.5781 56.2383C92.9766 54.7617 97.125 54.9727 100.324 56.8828C101.367 57.5039 102.504 58.3594 103.137 59.4375C104.051 60.9727 102.668 62.9883 100.863 62.25Z" fill="#42312C"/>
<path d="M136.523 63.6094C135.07 63.6094 133.887 64.7344 133.887 66.1172V76.8984C133.887 78.2813 135.07 79.4063 136.523 79.4063C137.977 79.4063 139.16 78.2813 139.16 76.8984V66.1172C139.16 64.7344 137.977 63.6094 136.523 63.6094ZM131.25 63.6094C129.797 63.6094 128.613 64.7344 128.613 66.1172V76.8984C128.613 78.2813 129.797 79.4063 131.25 79.4063C132.703 79.4063 133.887 78.2813 133.887 76.8984V66.1172C133.887 64.7344 132.703 63.6094 131.25 63.6094Z" fill="#E8AD00"/>
<path d="M133.887 63.6094C132.434 63.6094 131.25 64.7344 131.25 66.1172V79.2305C131.25 80.6133 132.434 81.7383 133.887 81.7383C135.34 81.7383 136.523 80.6133 136.523 79.2305V66.1172C136.523 64.7344 135.34 63.6094 133.887 63.6094Z" fill="#FFCA28"/>
<path d="M133.887 65.25C135.673 65.25 137.121 63.8701 137.121 62.168C137.121 60.4658 135.673 59.0859 133.887 59.0859C132.1 59.0859 130.652 60.4658 130.652 62.168C130.652 63.8701 132.1 65.25 133.887 65.25Z" fill="#FFCA28"/>
<path d="M133.887 62.1328C133.242 62.1328 132.715 61.6055 132.715 60.9609V16.4297C132.715 15.7852 133.242 15.2578 133.887 15.2578C134.531 15.2578 135.059 15.7852 135.059 16.4297V60.9609C135.059 61.6172 134.531 62.1328 133.887 62.1328Z" fill="#504F4F"/>
<path d="M135.938 15.2109C99.8086 6.12891 75 5.83594 75 5.83594C75 5.83594 50.1914 6.12891 14.0625 15.2109V16.1133C14.0625 17.6719 15.082 19.043 16.5703 19.4766C20.9297 20.7656 31.957 23.6133 37.875 24.7969C37.7812 24.8906 36.5859 26.9883 35.7305 28.9336C35.7305 28.9336 45.2695 35.6367 75.0117 38.6367C104.754 35.6367 114.574 29.7539 114.574 29.7539C113.543 27.6328 112.477 25.6641 112.477 25.6641C117.75 24.7969 129.152 20.8945 133.512 19.5C134.977 19.0313 135.961 17.6836 135.961 16.1484V15.2109H135.938Z" fill="url(#paint1_linear_4_35)"/>
<path d="M75 5.83594C75 5.83594 50.1914 6.12891 14.0625 15.2109C14.0625 15.2109 55.5586 26.543 75 26.2031C94.4414 26.543 135.938 15.2109 135.938 15.2109C99.8086 6.12891 75 5.83594 75 5.83594Z" fill="url(#paint2_linear_4_35)"/>
<path opacity="0.4" d="M135.938 15.2109C99.8086 6.12891 75 5.83594 75 5.83594C75 5.83594 50.1914 6.12891 14.0625 15.2109V16.1133C14.0625 17.6719 15.082 19.043 16.5703 19.4766C20.9297 20.7656 31.957 23.8008 37.875 24.9961C37.875 24.9961 36.75 26.8242 35.7305 29.1328C35.7305 29.1328 45.2695 35.6367 75.0117 38.6484C104.754 35.6484 114.574 29.7656 114.574 29.7656C113.543 27.6445 112.477 25.6758 112.477 25.6758C117.75 24.8086 129.152 20.9062 133.512 19.5117C134.977 19.043 135.961 17.6953 135.961 16.1602V15.2109H135.938Z" fill="url(#paint3_linear_4_35)"/>
<path d="M134.18 141.785C134.18 124.664 108.691 116.543 86.4609 114.715L76.3828 127.641C76.0547 128.062 75.5391 128.32 75 128.32C74.4609 128.32 73.9453 128.074 73.6172 127.641L63.5156 114.691C51.1523 115.641 15.8086 120.258 15.8086 141.785V145.312H134.168L134.18 141.785Z" fill="#212121"/>
<path d="M134.18 141.785C134.18 124.664 108.691 116.543 86.4609 114.715L76.3828 127.641C76.0547 128.062 75.5391 128.32 75 128.32C74.4609 128.32 73.9453 128.074 73.6172 127.641L63.5156 114.691C51.1523 115.641 15.8086 120.258 15.8086 141.785V145.312H134.168L134.18 141.785Z" fill="url(#paint4_radial_4_35)"/>
<defs>
<radialGradient id="paint0_radial_4_35" cx="0" cy="0" r="1" gradientUnits="userSpaceOnUse" gradientTransform="translate(75.0012 54.6849) scale(44.3824 50.0722)">
<stop offset="0.794" stop-color="#554138" stop-opacity="0"/>
<stop offset="1" stop-color="#554138"/>
</radialGradient>
<linearGradient id="paint1_linear_4_35" x1="75" y1="0.760546" x2="75" y2="34.3242" gradientUnits="userSpaceOnUse">
<stop offset="0.003" stop-color="#424242"/>
<stop offset="0.472" stop-color="#353535"/>
<stop offset="1" stop-color="#212121"/>
</linearGradient>
<linearGradient id="paint2_linear_4_35" x1="75" y1="0.95625" x2="75" y2="37.2844" gradientUnits="userSpaceOnUse">
<stop offset="0.003" stop-color="#616161"/>
<stop offset="0.324" stop-color="#505050"/>
<stop offset="0.955" stop-color="#242424"/>
<stop offset="1" stop-color="#212121"/>
</linearGradient>
<linearGradient id="paint3_linear_4_35" x1="16.2809" y1="22.2457" x2="134.439" y2="22.2457" gradientUnits="userSpaceOnUse">
<stop offset="0.001" stop-color="#BFBEBE"/>
<stop offset="0.3" stop-color="#212121" stop-opacity="0"/>
<stop offset="0.7" stop-color="#212121" stop-opacity="0"/>
<stop offset="1" stop-color="#BFBEBE"/>
</linearGradient>
<radialGradient id="paint4_radial_4_35" cx="0" cy="0" r="1" gradientUnits="userSpaceOnUse" gradientTransform="translate(75 143.676) scale(63.477 33.3064)">
<stop offset="0.598" stop-color="#212121"/>
<stop offset="1" stop-color="#616161"/>
</radialGradient>
</defs>
</svg>
