<svg width="150" height="150" viewBox="0 0 150 150" fill="none" xmlns="http://www.w3.org/2000/svg">
<path d="M75 12.5C57.8125 12.5 43.75 26.5625 43.75 43.75V56.25H56.25V43.75C56.25 33.4375 64.6875 25 75 25C85.3125 25 93.75 33.4375 93.75 43.75V56.25H106.25V43.75C106.25 26.5625 92.1875 12.5 75 12.5Z" fill="#424242"/>
<path d="M112.5 137.5H37.5C30.625 137.5 25 131.875 25 125V68.75C25 61.875 30.625 56.25 37.5 56.25H112.5C119.375 56.25 125 61.875 125 68.75V125C125 131.875 119.375 137.5 112.5 137.5Z" fill="#FB8C00"/>
<path d="M75 106.25C80.1777 106.25 84.375 102.053 84.375 96.875C84.375 91.6973 80.1777 87.5 75 87.5C69.8223 87.5 65.625 91.6973 65.625 96.875C65.625 102.053 69.8223 106.25 75 106.25Z" fill="#C76E00"/>
</svg>
