<svg width="548" height="480" viewBox="0 0 548 480" fill="none" xmlns="http://www.w3.org/2000/svg">
<path d="M81.25 367.5H218.75V442.5H81.25V367.5Z" fill="#BF360C"/>
<path d="M62.5 367.5C76.3071 367.5 87.5 356.307 87.5 342.5C87.5 328.693 76.3071 317.5 62.5 317.5C48.6929 317.5 37.5 328.693 37.5 342.5C37.5 356.307 48.6929 367.5 62.5 367.5Z" fill="#FFA726"/>
<path d="M237.5 367.5C251.307 367.5 262.5 356.307 262.5 342.5C262.5 328.693 251.307 317.5 237.5 317.5C223.693 317.5 212.5 328.693 212.5 342.5C212.5 356.307 223.693 367.5 237.5 367.5Z" fill="#FFA726"/>
<path d="M243.75 298.75C243.75 219.375 56.25 246.875 56.25 298.75V361.25C56.25 413.125 98.125 455 150 455C201.875 455 243.75 413.125 243.75 361.25V298.75Z" fill="#FFB74D"/>
<path d="M187.5 355C194.404 355 200 349.404 200 342.5C200 335.596 194.404 330 187.5 330C180.596 330 175 335.596 175 342.5C175 349.404 180.596 355 187.5 355Z" fill="#784719"/>
<path d="M112.5 355C119.404 355 125 349.404 125 342.5C125 335.596 119.404 330 112.5 330C105.596 330 100 335.596 100 342.5C100 349.404 105.596 355 112.5 355Z" fill="#784719"/>
<path d="M150 192.5C96.875 192.5 18.75 228.75 18.75 402.5L81.25 442.5V330L186.25 268.75L218.75 311.25V442.5L281.25 391.25C281.25 356.25 275.625 210 185 210L176.25 192.5H150Z" fill="#FF5722"/>
<path d="M281.25 330C277.5 330 275 332.5 275 336.25V292.5C275 237.5 230 192.5 175 192.5H118.75C115 192.5 112.5 195 112.5 198.75C112.5 202.5 115 205 118.75 205H175C223.125 205 262.5 244.375 262.5 292.5V355C262.5 358.75 265 361.25 268.75 361.25C272.5 361.25 275 358.75 275 355V367.5C275 391.875 255.625 411.25 231.25 411.25H150C146.25 411.25 143.75 413.75 143.75 417.5C143.75 421.25 146.25 423.75 150 423.75H231.25C262.5 423.75 287.5 398.75 287.5 367.5V336.25C287.5 332.5 285 330 281.25 330Z" fill="#757575"/>
<path d="M281.25 317.5H275C268.125 317.5 262.5 323.125 262.5 330V355C262.5 361.875 268.125 367.5 275 367.5H281.25C288.125 367.5 293.75 361.875 293.75 355V330C293.75 323.125 288.125 317.5 281.25 317.5Z" fill="#37474F"/>
<path d="M150 430C156.904 430 162.5 424.404 162.5 417.5C162.5 410.596 156.904 405 150 405C143.096 405 137.5 410.596 137.5 417.5C137.5 424.404 143.096 430 150 430Z" fill="#37474F"/>
<g clip-path="url(#clip0_4_39)">
<path d="M310.271 155.858C310.271 200.39 363.394 236.502 428.914 236.502C440.687 236.502 452.028 235.317 462.752 233.15C495.162 268.421 540.767 265.685 540.767 265.685C547.586 259.982 540.767 255.31 540.767 255.31C517.181 242.453 507.879 228.803 504.645 217.937C530.865 203.15 547.586 180.824 547.586 155.852C547.586 111.313 494.451 75.2078 428.92 75.2078C363.394 75.2078 310.271 111.308 310.271 155.858" fill="#BCBEC0"/>
<path d="M349.069 189.109C283.537 189.109 230.396 225.227 230.396 269.753C230.396 294.732 247.117 317.051 273.344 331.838C270.103 342.711 260.802 356.367 237.221 369.217C237.221 369.217 230.402 373.872 237.221 379.574C237.221 379.574 282.826 382.31 315.236 347.051C325.954 349.219 337.296 350.403 349.074 350.403C414.594 350.403 467.718 314.286 467.718 269.765C467.718 225.221 414.588 189.109 349.069 189.109" fill="#5C35FA"/>
</g>
<defs>
<clipPath id="clip0_4_39">
<rect width="373" height="379" fill="white" transform="translate(175)"/>
</clipPath>
</defs>
</svg>
